<?xml version="1.0" encoding="UTF-8" standalone="no"?>
<!-- Created with Inkscape (http://www.inkscape.org/) -->

<svg
   xmlns:dc="http://purl.org/dc/elements/1.1/"
   xmlns:cc="http://creativecommons.org/ns#"
   xmlns:rdf="http://www.w3.org/1999/02/22-rdf-syntax-ns#"
   xmlns:svg="http://www.w3.org/2000/svg"
   xmlns="http://www.w3.org/2000/svg"
   xmlns:sodipodi="http://sodipodi.sourceforge.net/DTD/sodipodi-0.dtd"
   xmlns:inkscape="http://www.inkscape.org/namespaces/inkscape"
   width="210mm"
   height="297mm"
   viewBox="0 0 210 297"
   version="1.1"
   id="svg8"
   inkscape:version="0.92.1 r15371"
   sodipodi:docname="logo.svg">
  <defs
     id="defs2" />
  <sodipodi:namedview
     id="base"
     pagecolor="#ffffff"
     bordercolor="#666666"
     borderopacity="1.0"
     inkscape:pageopacity="0.0"
     inkscape:pageshadow="2"
     inkscape:zoom="1.1484375"
     inkscape:cx="251.53741"
     inkscape:cy="857.28027"
     inkscape:document-units="mm"
     inkscape:current-layer="layer1"
     showgrid="false"
     inkscape:window-width="1920"
     inkscape:window-height="1017"
     inkscape:window-x="1912"
     inkscape:window-y="-8"
     inkscape:window-maximized="1" />
  <metadata
     id="metadata5">
    <rdf:RDF>
      <cc:Work
         rdf:about="">
        <dc:format>image/svg+xml</dc:format>
        <dc:type
           rdf:resource="http://purl.org/dc/dcmitype/StillImage" />
        <dc:title></dc:title>
      </cc:Work>
    </rdf:RDF>
  </metadata>
  <g
     inkscape:label="Layer 1"
     inkscape:groupmode="layer"
     id="layer1">
    <path
       style="fill:#b380ff;stroke-width:0.35277778"
       d="m 63.020946,105.01647 c -5.909649,-4.10763 -7.233154,-5.096757 -7.134839,-5.332307 0.05756,-0.13791 1.533412,-2.254871 3.279662,-4.704359 3.799597,-5.329746 4.748435,-5.966566 6.655202,-4.466703 1.09473,0.861116 1.249726,2.535248 0.353219,3.815189 -0.561305,0.801377 -0.554422,0.816197 0.264583,0.569641 12.347236,-3.717043 22.887149,-13.600853 27.839253,-26.106267 1.134354,-2.864545 2.802326,-9.480945 2.808157,-11.139202 0.0079,-2.250743 3.181837,-3.269981 4.593647,-1.47515 0.91987,1.169419 0.80546,2.851897 -0.57866,8.509902 -2.187513,8.942098 -6.356267,16.298859 -13.058392,23.044658 -5.207078,5.241011 -11.681421,9.317298 -18.65612,11.746011 l -3.335217,1.161387 1.207622,0.92109 c 1.476784,1.1264 1.808744,2.05492 1.232252,3.4467 -0.405877,0.97988 -1.507158,1.70821 -2.582918,1.70821 -0.243862,0 -1.543213,-0.76446 -2.887451,-1.6988 z"
       id="path4516"
       inkscape:connector-curvature="0"
       inkscape:export-xdpi="60.932243"
       inkscape:export-ydpi="60.932243"
       inkscape:export-filename="C:\Users\paulius\path4498.png" />
    <path
       style="fill:#ff8080;stroke-width:0.35277778"
       d="M 45.583825,102.08731 C 34.864856,100.49453 23.624336,94.333092 16.468147,86.127682 12.230199,81.268377 8.5693662,74.987461 6.7750772,69.49722 6.2994942,68.042011 5.8722022,66.789911 5.8255382,66.714773 5.7788782,66.639643 5.2754562,67.076201 4.7068332,67.684912 2.8501752,69.672473 0.07190915,68.914237 4.3715125e-4,66.400455 -0.02180285,65.618093 0.80127315,64.166236 3.2204602,60.720553 c 1.787448,-2.545887 3.38283,-4.628889 3.545292,-4.628889 0.162463,0 1.223929,0.683892 2.358814,1.51976 1.1348848,0.835868 3.1986858,2.347397 4.5862248,3.358956 3.272045,2.385413 3.733445,3.537387 2.079348,5.191485 -1.049695,1.049697 -2.261737,1.10581 -3.463687,0.160355 -0.493332,-0.388056 -0.987578,-0.705556 -1.098324,-0.705556 -0.110746,0 0.21205,1.150938 0.717323,2.557639 5.41357,15.07159 18.722183,26.139414 34.459775,28.657743 2.675015,0.428054 3.373053,0.675407 4.029294,1.427801 0.977056,1.120217 1.002276,1.921563 0.0967,3.072813 -0.939419,1.19428 -1.457269,1.27327 -4.947398,0.75465 z"
       id="path4514"
       inkscape:export-xdpi="60.932243"
       inkscape:export-ydpi="60.932243"
       inkscape:export-filename="C:\Users\paulius\path4498.png" />
    <path
       id="path4506"
       style="fill:#000000;stroke-width:0.35277778"
       d="m 57.433415,62.457409 c 1.929628,-0.84467 3.920469,-2.896186 4.944301,-5.094979 2.896238,-6.220012 -2.008731,-13.611094 -9.03278,-13.611094 -8.49353,0 -13.096398,10.344358 -7.270266,16.339005 0.845629,0.870087 2.045754,1.844805 2.66695,2.166037 2.565869,1.326865 5.941508,1.404938 8.691795,0.201031 z m -7.263479,5.851211 c -3.985291,-0.870709 -7.305294,-3.180987 -9.540056,-6.638597 -4.483135,-6.936281 -2.511358,-16.351112 4.353747,-20.788241 3.042592,-1.966521 5.281513,-2.539859 9.24192,-2.366645 2.799591,0.122445 3.575904,0.303434 5.621909,1.310678 2.885972,1.42076 5.771409,4.21217 7.045124,6.815543 4.418643,9.031383 -1.038402,19.949174 -10.878407,21.764198 -2.527293,0.466167 -3.32764,0.452892 -5.844237,-0.09694 z m 6.702778,9.689627 v -3.846195 l 2.38125,-0.739557 c 1.309687,-0.406756 3.175,-1.190914 4.145138,-1.742577 l 1.763889,-1.003021 2.733432,2.669487 2.733431,2.669487 2.470041,-2.451114 c 1.358522,-1.348112 2.47004,-2.638944 2.47004,-2.868518 0,-0.22957 -1.137514,-1.470564 -2.527807,-2.757762 l -2.527808,-2.340363 1.27431,-2.577176 c 0.700875,-1.417443 1.460359,-3.316019 1.687746,-4.219056 l 0.413431,-1.641884 h 3.838673 3.838677 V 53.445831 49.741665 H 77.72848 73.889807 l -0.409251,-1.625286 c -0.22509,-0.893907 -0.971726,-2.742212 -1.659198,-4.107342 l -1.249941,-2.482057 2.676161,-2.691952 2.676158,-2.691948 -2.666703,-2.637513 -2.666707,-2.637513 -2.638919,2.741018 -2.638923,2.741018 -1.590272,-0.931961 C 62.847563,34.90555 60.9883,34.123885 59.590521,33.681097 l -2.541418,-0.805069 -0.100129,-3.738015 -0.100129,-3.738014 h -3.515843 -3.515844 v 3.673574 3.673574 l -2.381249,0.761528 c -1.309688,0.41884 -3.229367,1.235998 -4.265955,1.815908 l -1.884705,1.054378 -2.584358,-2.755453 -2.584362,-2.755454 -2.675197,2.637513 -2.675198,2.637513 2.676161,2.691948 2.676161,2.691952 -1.249941,2.482057 c -0.687471,1.36513 -1.434109,3.213435 -1.659198,4.107342 l -0.409251,1.625286 H 28.96139 25.122715 v 3.704166 3.704167 h 3.838675 3.838676 l 0.415362,1.675694 c 0.228449,0.921632 0.975517,2.816377 1.660153,4.210544 l 1.24479,2.534846 -2.500217,2.358577 c -1.37512,1.29722 -2.500217,2.542046 -2.500217,2.766282 0,0.224236 1.111518,1.510704 2.470041,2.858816 l 2.47004,2.451114 2.733431,-2.669487 2.733432,-2.669487 1.763889,1.003021 c 0.970139,0.551663 2.835451,1.335821 4.145139,1.742577 l 2.381249,0.739557 v 3.846195 3.846194 h 3.527778 3.527778 z m -8.530597,8.80855 c -2.661934,-0.8506 -3.593585,-2.276475 -3.816625,-5.841259 -0.166994,-2.669035 -0.229249,-2.844426 -1.168929,-3.29318 -0.956289,-0.456689 -1.061191,-0.409074 -2.871996,1.30351 -2.092215,1.97873 -3.015445,2.33421 -5.372304,2.068558 -1.485203,-0.167403 -1.894923,-0.465014 -5.280844,-3.835872 -4.168697,-4.150156 -4.766585,-5.302324 -4.029001,-7.764159 0.257316,-0.858845 1.141988,-2.207659 2.140341,-3.263272 1.650725,-1.745396 1.686499,-1.828409 1.193467,-2.769394 -0.476009,-0.908498 -0.655636,-0.970065 -2.830218,-0.970065 -2.862587,0 -4.640821,-0.889599 -5.760511,-2.88182 -0.722595,-1.285685 -0.770964,-1.757288 -0.658949,-6.424856 0.11609,-4.837334 0.158615,-5.086755 1.071115,-6.282347 1.30593,-1.711075 2.92942,-2.402643 5.64033,-2.402643 2.160795,0 2.26604,-0.04093 2.637756,-1.025712 0.363915,-0.96412 0.28312,-1.12819 -1.345529,-2.732348 -1.953934,-1.924555 -2.631331,-3.619789 -2.252767,-5.63771 0.201758,-1.075461 0.946264,-2.057066 3.661617,-4.827709 3.736557,-3.81264 4.703424,-4.473742 6.542882,-4.473742 1.853265,0 3.045887,0.579488 4.868213,2.36544 1.577227,1.545745 1.700523,1.599941 2.69899,1.186364 1.025281,-0.424687 1.048731,-0.49236 1.169493,-3.37549 0.107118,-2.557366 0.238566,-3.065522 1.005177,-3.885789 1.629541,-1.743597 2.405056,-1.93507 7.831787,-1.933651 4.411348,0.0012 5.18893,0.08932 6.194354,0.702331 1.866081,1.137764 2.551578,2.618612 2.553095,5.515357 0.0014,2.473055 0.0193,2.522281 1.082618,2.962728 1.04309,0.432062 1.139705,0.39065 2.734028,-1.17185 1.822327,-1.785952 3.014948,-2.36544 4.868213,-2.36544 1.840851,0 2.809357,0.663058 6.524403,4.466737 2.670725,2.734446 3.441033,3.750308 3.630976,4.788451 0.381201,2.083459 -0.281048,3.790283 -2.206452,5.686735 -1.605905,1.581757 -1.70307,1.77492 -1.355718,2.695155 0.359357,0.952049 0.48237,0.996195 3.108226,1.115441 2.932835,0.133188 3.965723,0.620564 5.405726,2.550739 0.659832,0.884438 0.727354,1.471894 0.727354,6.328201 0,4.645332 -0.0891,5.500483 -0.673781,6.466537 -1.053193,1.740175 -2.900091,2.590891 -5.624791,2.590891 -2.174582,0 -2.354209,0.06157 -2.830216,0.970065 -0.493031,0.940985 -0.45726,1.023998 1.193465,2.769394 0.998354,1.055613 1.883025,2.404427 2.140341,3.263272 0.737585,2.461835 0.139697,3.614003 -4.029,7.764159 -3.385922,3.370858 -3.795642,3.668469 -5.280844,3.835872 -2.356858,0.265652 -3.280088,-0.08983 -5.372304,-2.068558 -1.810805,-1.712584 -1.915707,-1.760199 -2.871996,-1.30351 -0.939503,0.448669 -1.002026,0.624642 -1.170075,3.29318 -0.198134,3.146206 -0.635999,4.072294 -2.468298,5.220469 -1.085945,0.680484 -1.787327,0.782708 -5.820833,0.848374 -2.522361,0.04106 -5.011755,-0.06135 -5.531986,-0.227584 z"
       inkscape:export-xdpi="60.932243"
       inkscape:export-ydpi="60.932243"
       inkscape:export-filename="C:\Users\paulius\path4498.png" />
    <path
       style="fill:#ffff66;stroke-width:0.35277778;fill-opacity:1"
       d="m 5.0399862,50.223256 c -0.402138,-0.511235 -0.728312,-1.027173 -0.724832,-1.146528 0.0035,-0.119355 0.225837,-1.658521 0.494126,-3.420371 C 6.4389012,34.954678 11.428287,25.514167 19.523515,17.815277 24.704986,12.887488 31.070097,9.0105085 37.487946,6.8731689 L 40.283883,5.9420366 39.008369,4.7390718 C 37.896635,3.6905733 37.761409,3.3883535 37.955235,2.3854147 38.212177,1.0558976 39.317102,0 40.451413,0 c 1.081395,0 10.508449,6.6238489 10.199416,7.1665431 -0.130973,0.2299984 -1.60244,2.3541603 -3.269929,4.7203589 -3.641856,5.167866 -4.611356,5.810318 -6.511999,4.31527 -1.159556,-0.912106 -1.246173,-2.651686 -0.19836,-3.983764 0.881066,-1.120093 0.888326,-1.119399 -1.876284,-0.179223 -6.04512,2.055797 -13.089059,6.675063 -17.532712,11.497582 -6.113083,6.634285 -9.638956,13.828572 -11.2944198,23.045441 -0.716892,3.991324 -1.103973,4.570568 -3.054287,4.570568 -0.813205,0 -1.35206,-0.267441 -1.872852,-0.92952 z"
       id="path4504"
       inkscape:export-xdpi="60.932243"
       inkscape:export-ydpi="60.932243"
       inkscape:export-filename="C:\Users\paulius\path4498.png" />
    <path
       style="fill:#99ff55;stroke-width:0.35277778"
       d="m 95.149102,47.750647 c -2.668316,-1.940966 -4.725233,-3.697411 -4.918795,-4.200264 -0.492104,-1.278424 0.132729,-2.671685 1.436677,-3.203525 0.960162,-0.391619 1.278752,-0.361185 2.445381,0.233595 0.737761,0.376132 1.381534,0.643728 1.430606,0.59466 0.04907,-0.04907 -0.520693,-1.639849 -1.266141,-3.535056 C 88.521575,23.008019 75.69442,12.681989 60.047714,10.085159 57.503907,9.6629724 56.547559,9.3490314 56.078964,8.7823326 c -0.81945,-0.9910059 -0.779745,-2.130743 0.113799,-3.266702 0.881249,-1.1203259 2.053368,-1.1895681 6.347541,-0.374977 11.804819,2.2393353 22.881409,9.1491314 30.172091,18.8219434 2.613709,3.467702 6.393665,10.745288 7.392405,14.232683 0.37397,1.305789 0.80098,2.374163 0.94892,2.374163 0.14795,0 0.26899,-0.137104 0.26899,-0.304673 0,-0.648674 1.90295,-2.164772 2.71714,-2.164772 1.98004,0 3.2132,1.822316 2.44397,3.611605 -0.45243,1.052375 -6.30175,9.407694 -6.57222,9.387924 -0.097,-0.0071 -2.240137,-1.514086 -4.762498,-3.34888 z"
       id="path4498"
       inkscape:export-xdpi="60.932243"
       inkscape:export-ydpi="60.932243"
       inkscape:export-filename="C:\Users\paulius\path4498.png" />
  </g>
</svg>
